<?xml version="1.0" encoding="UTF-8"?>
<svg id="_레이어_2" data-name="레이어 2" xmlns="http://www.w3.org/2000/svg" viewBox="0.054 0.045 16.762 36.831">
  <g data-levelled="0.63375" transform="rotate(0.63375 8.485 18.405)">
  <defs>
    <style>
      .cls-1 {
        fill: #b4b3b3;
        stroke: #040000;
        stroke-width: .49px;
      }
    </style>
  </defs>
  <g id="_레이어_1-2" data-name="레이어 1">
    <g>
      <path class="cls-1" d="M1.38,36.5l13.05.06s1.38.13,1.38-.7l-.24-31.21L14.97.25l-7.9.06s-.48.06-.48,1.08l-.06,3.12H1.62S.25,4.52.25,6.3l.24,28.99s.18,1.02.9,1.21Z"/>
      <g>
        <g>
          <rect class="cls-1" x="4.48" y="25.54" width="8.06" height="5.01"/>
          <rect class="cls-1" x="4.48" y="25.41" width="1.96" height="5.27"/>
        </g>
        <rect class="cls-1" x="12.5" y="27.15" width="3.95" height="1.57"/>
      </g>
      <g>
        <path class="cls-1" d="M1.89,31.51c.68,0,1.23.59,1.23,1.32s-.55,1.32-1.23,1.32-1.23-.59-1.23-1.32.55-1.32,1.23-1.32Z"/>
        <line class="cls-1" x1="1.54" y1="32.83" x2="2.29" y2="32.84"/>
        <line class="cls-1" x1="1.9" y1="33.25" x2="1.92" y2="32.39"/>
        <path class="cls-1" d="M1.93,26.63c.68,0,1.23.59,1.23,1.32s-.55,1.32-1.23,1.32-1.23-.59-1.23-1.32.55-1.32,1.23-1.32Z"/>
        <line class="cls-1" x1="1.58" y1="27.96" x2="2.33" y2="27.97"/>
        <line class="cls-1" x1="1.94" y1="28.37" x2="1.96" y2="27.51"/>
        <path class="cls-1" d="M1.89,21.74c.68,0,1.23.59,1.23,1.32s-.55,1.32-1.23,1.32-1.23-.59-1.23-1.32.55-1.32,1.23-1.32Z"/>
        <line class="cls-1" x1="1.54" y1="23.07" x2="2.29" y2="23.08"/>
        <line class="cls-1" x1="1.9" y1="23.48" x2="1.92" y2="22.62"/>
        <path class="cls-1" d="M1.81,16.6c.68,0,1.23.59,1.23,1.32s-.55,1.32-1.23,1.32-1.23-.59-1.23-1.32.55-1.32,1.23-1.32Z"/>
        <line class="cls-1" x1="1.46" y1="17.93" x2="2.21" y2="17.94"/>
        <line class="cls-1" x1="1.82" y1="18.34" x2="1.84" y2="17.48"/>
        <path class="cls-1" d="M1.69,11.59c.68,0,1.23.59,1.23,1.32s-.55,1.32-1.23,1.32-1.23-.59-1.23-1.32.55-1.32,1.23-1.32Z"/>
        <line class="cls-1" x1="1.34" y1="12.92" x2="2.09" y2="12.93"/>
        <line class="cls-1" x1="1.7" y1="13.33" x2="1.72" y2="12.47"/>
        <path class="cls-1" d="M1.85,6.79c.68,0,1.23.59,1.23,1.32s-.55,1.32-1.23,1.32-1.23-.59-1.23-1.32.55-1.32,1.23-1.32Z"/>
        <line class="cls-1" x1="1.5" y1="8.12" x2="2.25" y2="8.13"/>
        <line class="cls-1" x1="1.86" y1="8.53" x2="1.88" y2="7.67"/>
      </g>
      <g>
        <g>
          <rect class="cls-1" x="4.76" y="30.51" width="8.06" height="5.01"/>
          <rect class="cls-1" x="4.76" y="30.38" width="1.96" height="5.27"/>
        </g>
        <rect class="cls-1" x="12.77" y="32.12" width="3.95" height="1.57"/>
      </g>
      <g>
        <g>
          <rect class="cls-1" x="4.44" y="20.57" width="8.06" height="5.01"/>
          <rect class="cls-1" x="4.44" y="20.44" width="1.96" height="5.27"/>
        </g>
        <rect class="cls-1" x="12.46" y="22.18" width="3.95" height="1.57"/>
      </g>
      <g>
        <g>
          <rect class="cls-1" x="4.48" y="15.52" width="8.06" height="5.01"/>
          <rect class="cls-1" x="4.48" y="15.39" width="1.96" height="5.27"/>
        </g>
        <rect class="cls-1" x="12.5" y="17.13" width="3.95" height="1.57"/>
      </g>
      <g>
        <g>
          <rect class="cls-1" x="4.16" y="10.72" width="8.06" height="5.01"/>
          <rect class="cls-1" x="4.16" y="10.59" width="1.96" height="5.27"/>
        </g>
        <rect class="cls-1" x="12.18" y="12.33" width="3.95" height="1.57"/>
      </g>
      <g>
        <g>
          <rect class="cls-1" x="3.68" y="5.71" width="8.06" height="5.01"/>
          <rect class="cls-1" x="3.68" y="5.58" width="1.96" height="5.27"/>
        </g>
        <rect class="cls-1" x="11.7" y="7.32" width="3.95" height="1.57"/>
      </g>
      <rect class="cls-1" x="14.69" y="4.26" width=".96" height="32.11"/>
    </g>
  </g>
</g>
</svg>